<svg width="171" height="37" viewBox="0 0 171 37" fill="none" xmlns="http://www.w3.org/2000/svg">
<path d="M7.41628 0C9.30075 0.0607892 11.1852 0.0607892 13.0393 0.212762C14.6502 0.364735 16.3219 0.486314 17.8416 0.972627C22.1273 2.37078 24.8324 5.41024 25.957 9.78706C26.96 13.708 26.8384 17.5681 25.0452 21.2762C23.1911 25.0755 19.9996 27.2336 15.8356 27.7199C12.7353 28.0846 9.5743 28.0238 6.44366 28.115C4.28564 28.1758 2.15802 28.115 0 28.115C0 18.7535 0 9.36154 0 0C2.49236 0 4.95432 0 7.41628 0ZM6.23089 23.1303C6.44366 23.1607 6.59563 23.1911 6.71721 23.1607C8.87522 23.0391 11.0636 23.0087 13.2217 22.7959C16.8386 22.4616 18.6623 20.8507 19.7261 17.3857C20.3948 15.2277 20.2732 13.0697 19.7261 10.9117C18.9966 8.11536 17.2641 6.29168 14.4374 5.56221C13.7991 5.41024 13.1305 5.28866 12.4618 5.28866C10.395 5.25827 8.32812 5.28866 6.23089 5.28866C6.23089 11.246 6.23089 17.1426 6.23089 23.1303Z" fill="white"/>
<path d="M51.7315 14.3766C51.6708 6.50443 57.5065 0.0911731 66.1082 0.182357C74.1324 0.273541 79.9377 6.17009 80.0289 14.3158C80.0897 22.1273 74.2843 28.5405 65.8346 28.5405C57.7193 28.5405 51.7012 22.492 51.7315 14.3766ZM66.5945 22.7351C68.9653 22.6744 71.5184 21.489 72.8862 18.4191C74.0108 15.9268 74.0108 13.404 73.099 10.8509C72.0655 8.02416 69.9683 6.32207 67.0504 5.98773C64.1022 5.62299 61.397 6.38285 59.5734 8.936C58.0536 11.094 57.7193 13.5256 58.1144 16.1091C58.7527 20.1212 61.701 22.7351 66.5945 22.7351Z" fill="white"/>
<path d="M87.0805 14.3461C86.9893 6.47393 92.8859 0.121456 101.336 0.212639C109.481 0.273429 115.347 6.20038 115.378 14.3765C115.378 22.4615 109.451 28.5708 101.184 28.5708C93.0075 28.5404 87.0805 22.5831 87.0805 14.3461ZM109.025 14.3765C109.025 14.0422 109.056 13.7382 109.025 13.4039C108.691 8.35839 104.74 5.41012 100.545 5.89643C97.3235 6.26116 94.9527 7.78089 93.9193 10.9115C93.4938 12.2489 93.2506 13.7686 93.3418 15.1668C93.8585 22.6439 101.092 24.2244 105.5 21.5193C108.174 19.9387 108.965 17.3248 109.025 14.3765Z" fill="white"/>
<path d="M161.365 28.0542C159.298 28.0542 157.353 28.0542 155.316 28.0542C155.286 27.7198 155.256 27.4159 155.256 27.1119C155.256 23.5862 155.225 20.03 155.256 16.5042C155.256 15.5012 155.012 14.6198 154.435 13.7991C151.639 9.60466 148.842 5.34941 146.046 1.12456C145.864 0.85101 145.712 0.577458 145.438 0.182329C145.985 0.182329 146.411 0.182329 146.836 0.182329C148.508 0.182329 150.18 0.212723 151.821 0.151934C152.55 0.121539 153.006 0.395091 153.371 1.00298C154.769 3.34337 156.228 5.65336 157.657 7.99374C157.809 8.26729 158.021 8.51045 158.234 8.87518C158.538 8.41927 158.812 8.02414 159.085 7.62901C160.483 5.37981 161.912 3.1306 163.28 0.881404C163.584 0.364696 163.948 0.151934 164.556 0.151934C166.654 0.182329 168.751 0.151934 171 0.151934C170.818 0.486275 170.696 0.729431 170.544 0.942194C167.748 5.22783 164.951 9.51347 162.125 13.7687C161.578 14.6198 161.304 15.4708 161.304 16.4738C161.334 19.9692 161.304 23.495 161.304 26.9904C161.365 27.3551 161.365 27.659 161.365 28.0542Z" fill="white"/>
<path d="M32.4918 36.1088C32.4918 34.4371 32.4918 32.735 32.4918 30.9417C33.0085 30.8201 33.5252 30.6986 34.0419 30.6074C35.4401 30.3338 36.2911 29.4828 36.5039 28.115C36.6559 27.0816 36.8079 26.0482 36.8079 25.0148C36.8382 17.173 36.8079 9.33116 36.8079 1.48936C36.8079 0.212784 36.8079 0.212784 38.054 0.243179C39.4522 0.243179 40.8503 0.273573 42.2485 0.243179C42.826 0.243179 43.0387 0.395152 43.0387 1.00304C43.0084 9.72629 43.0387 18.4495 42.978 27.1728C42.978 29.0269 42.4613 30.8201 41.519 32.4615C40.1817 34.8322 38.0844 36.0176 35.4097 36.1696C34.4675 36.1696 33.4948 36.1088 32.4918 36.1088Z" fill="white"/>
<path d="M139.906 0.18234C137.718 2.73549 135.681 5.16705 133.645 7.56823C131.943 9.57427 130.241 11.5803 128.508 13.5256C128.052 14.0423 128.144 14.3462 128.539 14.8021C132.156 18.9966 135.742 23.2214 139.329 27.4463C139.481 27.5983 139.602 27.7806 139.845 28.0846C139.177 28.0846 138.66 28.0846 138.143 28.0846C136.502 28.0846 134.861 28.115 133.219 28.0542C132.855 28.0542 132.399 27.9022 132.156 27.6287C128.326 23.1911 124.496 18.723 120.697 14.2854C120.667 14.255 120.667 14.2246 120.606 14.1335C121.852 12.6745 123.098 11.1852 124.375 9.69585C126.867 6.77797 129.39 3.86009 131.913 0.91181C132.368 0.395102 132.855 0.121551 133.554 0.151945C135.621 0.212735 137.657 0.18234 139.906 0.18234Z" fill="white"/>
</svg>
