<svg width="156" height="37" viewBox="0 0 156 37" fill="none" xmlns="http://www.w3.org/2000/svg">
<path fill-rule="evenodd" clip-rule="evenodd" d="M26.4209 10.0059C22.7919 12.3867 19.3839 15.0763 16.2386 18.0432C15.9122 18.3513 15.9122 18.8772 16.2386 19.1853C19.3839 22.1521 22.7919 24.8418 26.4209 27.2225C26.7723 27.4528 26.8852 27.92 26.6669 28.2794C24.8875 31.2118 22.7903 33.9284 20.4174 36.3772C20.1613 36.6415 19.7513 36.6904 19.4393 36.4957C12.0325 31.8741 5.50386 25.9741 0.165754 19.1C-0.0552514 18.8154 -0.0552514 18.4131 0.165754 18.1284C5.50386 11.2544 12.0325 5.3543 19.4393 0.733161C19.7513 0.538062 20.1613 0.586936 20.4174 0.851241C22.7903 3.30003 24.8875 6.01665 26.6669 8.94908C26.8852 9.30841 26.7723 9.77525 26.4209 10.0059ZM43.8625 17.7305C43.7781 17.8193 43.7668 17.955 43.8347 18.057L48.8882 25.6473C48.9561 25.7494 48.8831 25.8858 48.7609 25.8858H45.153C45.0651 25.8858 44.9831 25.8421 44.9347 25.7689L41.4939 20.602C41.422 20.4941 41.269 20.4804 41.1792 20.5738L39.5396 22.2774C39.4923 22.3266 39.4662 22.3919 39.4662 22.46V25.4346C39.4662 25.6841 39.2643 25.8858 39.0152 25.8858H36.3885C36.1394 25.8858 35.9375 25.6841 35.9375 25.4346V12.7094C35.9375 12.46 36.1394 12.2578 36.3885 12.2578H39.0152C39.2643 12.2578 39.4662 12.46 39.4662 12.709L39.4669 17.7266C39.4669 17.865 39.636 17.9327 39.7317 17.8322L44.9343 12.3481C44.9843 12.2957 45.0534 12.266 45.1256 12.266L48.6676 12.2793C48.8019 12.2797 48.8706 12.4408 48.7785 12.5385L43.8625 17.7305ZM60.9858 12.2666H63.611C63.8601 12.2666 64.062 12.4687 64.062 12.7178V25.4434C64.062 25.6925 63.8601 25.8946 63.611 25.8946H60.7762C60.6254 25.8946 60.4849 25.8196 60.4013 25.6937L55.2674 17.9845C55.1835 17.8582 54.9867 17.9176 54.9867 18.0697V25.4434C54.9867 25.6925 54.7848 25.8946 54.5361 25.8946H51.911C51.6618 25.8946 51.46 25.6925 51.46 25.4434V12.7178C51.46 12.4687 51.6618 12.2666 51.911 12.2666H54.7458C54.8965 12.2666 55.037 12.3421 55.1206 12.4676L60.2545 20.1768C60.3384 20.3031 60.5352 20.2436 60.5352 20.0919V12.7178C60.5352 12.4687 60.7371 12.2666 60.9858 12.2666ZM78.175 12.2656L75.5491 12.266C75.3 12.266 75.0985 12.4682 75.0985 12.7176V20.1527C75.0985 21.0059 74.8369 21.6385 74.3699 22.1394C74.038 22.4959 73.3394 22.9061 72.5874 22.9061C71.8229 22.9061 71.2996 22.6789 70.7506 22.1718C70.2286 21.6889 69.9947 20.9926 69.9947 20.1527V12.7176C69.9947 12.4682 69.7928 12.266 69.5441 12.266L66.9174 12.2656C66.6687 12.2656 66.4668 12.4678 66.4668 12.7168V20.13C66.4668 21.2886 66.7183 22.3036 67.222 23.1751C67.7253 24.0466 68.4391 24.7183 69.3633 25.1887C70.2871 25.6595 71.3543 25.8941 72.578 25.8941C73.8018 25.8941 74.8755 25.6595 75.7869 25.1887C76.6979 24.7183 77.3991 24.0466 77.89 23.1751C78.3804 22.3036 78.626 21.2886 78.626 20.13V12.7168C78.626 12.4678 78.4241 12.2656 78.175 12.2656ZM95.8529 12.2666H98.48C98.7291 12.2666 98.931 12.4687 98.931 12.7178V25.4434C98.931 25.6925 98.7291 25.8946 98.48 25.8946H95.8529C95.6042 25.8946 95.4023 25.6925 95.4023 25.4434V12.7178C95.4023 12.4687 95.6042 12.2666 95.8529 12.2666ZM155.555 12.2666H153.518H146.763H144.726C144.48 12.2666 144.28 12.4664 144.28 12.7127V14.6599C144.28 14.9062 144.48 15.106 144.726 15.106H146.763H148.099L148.108 15.1063L148.113 15.1066L148.121 15.1075L148.129 15.1085L148.139 15.1099C148.149 15.1107 148.159 15.1138 148.169 15.1161C148.265 15.1416 148.34 15.2166 148.366 15.3132C148.368 15.323 148.371 15.3328 148.372 15.3429L148.372 15.3483L148.374 15.3623C148.375 15.3692 148.376 15.3763 148.376 15.3836V25.4489C148.376 25.6952 148.575 25.8946 148.821 25.8946H151.459C151.705 25.8946 151.904 25.6952 151.904 25.4489V15.3836C151.904 15.3695 151.907 15.3562 151.908 15.3429L151.909 15.3364L151.91 15.3323C151.911 15.3259 151.913 15.3195 151.915 15.3132C151.94 15.2166 152.015 15.1416 152.112 15.1161L152.119 15.1143C152.126 15.1124 152.134 15.1105 152.141 15.1099C152.154 15.1079 152.168 15.106 152.182 15.106H153.518H155.555C155.801 15.106 156 14.9062 156 14.6599V12.7127C156 12.4664 155.801 12.2666 155.555 12.2666ZM132.1 12.2666H141.44C141.685 12.2666 141.884 12.4656 141.884 12.7108V14.6614C141.884 14.907 141.685 15.106 141.44 15.106H135.379C135.269 15.106 135.181 15.1944 135.181 15.3034V17.9364C135.181 18.0459 135.269 18.1342 135.379 18.1342H139.283C139.392 18.1342 139.48 18.2226 139.48 18.3321V20.7758C139.48 20.8848 139.392 20.9736 139.283 20.9736H135.379C135.269 20.9736 135.181 21.062 135.181 21.1711V25.4489C135.181 25.6952 134.981 25.8946 134.736 25.8946H132.1C131.853 25.8946 131.654 25.6952 131.654 25.4489V12.7127C131.654 12.4664 131.853 12.2666 132.1 12.2666ZM89.4516 21.8588C89.3727 22.5575 88.7393 23.0626 88.0369 23.0626L84.7593 23.0638C84.6476 23.0638 84.5566 22.9727 84.5566 22.8605L84.557 20.5333C84.557 20.4215 84.6476 20.3304 84.7597 20.3304L88.0849 20.3296C88.2786 20.3296 88.4621 20.3714 88.6288 20.4442C89.163 20.6701 89.523 21.2273 89.4516 21.8588ZM84.764 15.0172L87.5312 15.0156C87.7245 15.0156 87.908 15.0571 88.0748 15.1302C88.5636 15.337 88.9069 15.8219 88.9069 16.3864C88.9069 17.1391 88.2977 17.7491 87.5465 17.7494C87.5465 17.7494 85.4422 17.7502 84.7738 17.7506C84.6617 17.7506 84.5723 17.6595 84.5723 17.5473V15.2096C84.5723 15.1032 84.6582 15.0172 84.764 15.0172ZM90.7041 18.7232C90.6686 18.7091 90.6635 18.6622 90.6975 18.6438C91.0747 18.4397 92.5393 17.5334 92.5393 15.7637C92.5393 14.0144 90.9478 12.2753 89.2336 12.2753C88.4901 12.2753 86.8198 12.2737 85.1265 12.2721L85.1053 12.2721L85.0706 12.2721C83.7304 12.2708 82.3821 12.2696 81.4735 12.269C81.2271 12.2687 81.0303 12.4685 81.0303 12.7152V25.4455C81.0303 25.6949 81.2321 25.8971 81.4809 25.8971L88.0903 25.8963C88.4835 25.8963 89.2258 25.8689 89.6225 25.8068C91.3347 25.5389 93.0017 24.0532 93.0017 22.2585C93.0017 19.7694 91.1481 18.8964 90.7041 18.7232ZM118.537 19.0803C118.537 20.9789 120.145 22.5179 122.128 22.5179C124.111 22.5179 125.719 20.9789 125.719 19.0803C125.719 17.182 124.111 15.6431 122.128 15.6431C120.145 15.6431 118.537 17.182 118.537 19.0803ZM115.01 19.0804C115.01 15.3171 118.196 12.2666 122.127 12.2666C126.058 12.2666 129.245 15.3171 129.245 19.0804C129.245 22.8437 126.058 25.8942 122.127 25.8942C118.196 25.8942 115.01 22.8437 115.01 19.0804ZM112.635 13.7964C112.414 13.6849 112.006 13.48 111.836 13.3971C111.279 13.1235 110.656 12.928 109.981 12.7301C109.069 12.4635 107.719 12.2715 106.894 12.2715C105.818 12.2715 104.738 12.4279 103.943 12.7379C103.148 13.0484 102.468 13.5684 102.012 14.1827C101.556 14.7973 101.328 15.539 101.328 16.4082C101.328 17.277 101.552 17.9706 101.957 18.5215C102.423 19.1565 103.109 19.5651 103.464 19.723C103.798 19.8719 104.882 20.227 105.851 20.5444L105.852 20.5447C106.58 20.7831 107.242 21.0002 107.472 21.0923C107.82 21.2315 108.064 21.5728 108.064 21.9704C108.064 22.4944 107.64 22.9362 107.117 22.919C106.478 22.8975 105.409 22.6504 104.876 22.4455C104.073 22.1374 103.356 21.7546 102.752 21.2565C102.636 21.1603 102.465 21.1928 102.398 21.328L101.533 23.0824L101.375 23.4019C101.372 23.407 101.371 23.4124 101.37 23.4179C101.369 23.422 101.368 23.4261 101.367 23.43L101.02 24.1557C100.98 24.2405 101.013 24.341 101.097 24.3833L101.169 24.4194C101.398 24.5342 101.743 24.7075 101.896 24.7825C102.452 25.0558 103.075 25.2516 103.75 25.4495C104.663 25.7161 106.013 25.9085 106.837 25.9085C107.914 25.9085 108.993 25.7517 109.789 25.4413C110.584 25.1312 111.263 24.6116 111.719 23.9966C112.176 23.3823 112.404 22.6406 112.404 21.7714C112.404 20.9026 112.194 20.1977 111.775 19.6577C111.609 19.4446 111.427 19.2593 111.236 19.09L111.236 19.0896C110.942 18.8296 110.622 18.6145 110.268 18.4566C109.934 18.3077 108.849 17.9524 107.88 17.635C107.152 17.3965 106.489 17.1794 106.259 17.0873C105.912 16.9481 105.667 16.6068 105.667 16.2092C105.667 15.6856 106.092 15.2434 106.614 15.2606C107.254 15.2821 108.323 15.5292 108.856 15.7341C109.659 16.0422 110.376 16.425 110.979 16.9235C111.095 17.0193 111.267 16.9872 111.334 16.8516L112.199 15.0972L112.357 14.7774C112.359 14.7724 112.36 14.7672 112.361 14.762C112.362 14.7589 112.363 14.7558 112.364 14.7528C112.364 14.7517 112.364 14.7506 112.365 14.7496L112.712 14.0239C112.752 13.9391 112.719 13.8382 112.635 13.7964Z" fill="white"/>
</svg>
