<svg width="163" height="38" viewBox="0 0 163 38" fill="none" xmlns="http://www.w3.org/2000/svg">
<path fill-rule="evenodd" clip-rule="evenodd" d="M27.6064 9.91344C23.8145 12.4265 20.2536 15.2655 16.9672 18.3972C16.6262 18.7224 16.6262 19.2775 16.9672 19.6027C20.2536 22.7344 23.8145 25.5735 27.6064 28.0865C27.9736 28.3296 28.0915 28.8228 27.8634 29.202C26.0042 32.2974 23.8129 35.1649 21.3335 37.7498C21.0659 38.0288 20.6375 38.0803 20.3115 37.8748C12.5724 32.9965 5.75081 26.7687 0.173191 19.5128C-0.0577305 19.2123 -0.0577305 18.7876 0.173191 18.4872C5.75081 11.2312 12.5724 5.00338 20.3115 0.125514C20.6375 -0.0804304 21.0659 -0.0288412 21.3335 0.250153C23.8129 2.83498 26.0042 5.70252 27.8634 8.79787C28.0915 9.17716 27.9736 9.66994 27.6064 9.91344ZM45.8308 18.0673C45.7426 18.161 45.7308 18.3042 45.8018 18.4119L51.082 26.4239C51.153 26.5317 51.0767 26.6757 50.949 26.6757H47.1792C47.0874 26.6757 47.0017 26.6295 46.9511 26.5523L43.3559 21.0983C43.2808 20.9844 43.1209 20.9699 43.0271 21.0686L41.3139 22.8668C41.2645 22.9188 41.2372 22.9877 41.2372 23.0595V26.1994C41.2372 26.4627 41.0263 26.6757 40.766 26.6757H38.0214C37.7611 26.6757 37.5502 26.4627 37.5502 26.1994V12.7672C37.5502 12.5039 37.7611 12.2905 38.0214 12.2905H40.766C41.0263 12.2905 41.2372 12.5039 41.2372 12.7668L41.238 18.0632C41.238 18.2093 41.4147 18.2807 41.5146 18.1746L46.9507 12.3859C47.0029 12.3306 47.0751 12.2992 47.1506 12.2992L50.8515 12.3132C50.9918 12.3137 51.0636 12.4837 50.9673 12.5869L45.8308 18.0673ZM63.7225 12.2998H66.4654C66.7257 12.2998 66.9366 12.5132 66.9366 12.7761V26.2087C66.9366 26.4716 66.7257 26.6849 66.4654 26.6849H63.5034C63.3459 26.6849 63.1991 26.6057 63.1117 26.4728L57.7475 18.3353C57.6598 18.202 57.4542 18.2647 57.4542 18.4253V26.2087C57.4542 26.4716 57.2432 26.6849 56.9833 26.6849H54.2404C53.9801 26.6849 53.7692 26.4716 53.7692 26.2087V12.7761C53.7692 12.5132 53.9801 12.2998 54.2404 12.2998H57.2024C57.3599 12.2998 57.5068 12.3794 57.5941 12.5119L62.9583 20.6494C63.0461 20.7827 63.2517 20.72 63.2517 20.5599V12.7761C63.2517 12.5132 63.4626 12.2998 63.7225 12.2998ZM81.6827 12.2992L78.939 12.2996C78.6787 12.2996 78.4682 12.513 78.4682 12.7763V20.6244C78.4682 21.525 78.1948 22.1928 77.7069 22.7214C77.3601 23.0978 76.6302 23.5308 75.8444 23.5308C75.0456 23.5308 74.4988 23.291 73.9252 22.7557C73.3797 22.246 73.1353 21.511 73.1353 20.6244V12.7763C73.1353 12.513 72.9244 12.2996 72.6645 12.2996L69.92 12.2992C69.6601 12.2992 69.4492 12.5125 69.4492 12.7754V20.6005C69.4492 21.8234 69.7119 22.8948 70.2382 23.8147C70.7641 24.7347 71.5099 25.4437 72.4756 25.9402C73.4409 26.4371 74.556 26.6847 75.8346 26.6847C77.1132 26.6847 78.2352 26.4371 79.1875 25.9402C80.1393 25.4437 80.872 24.7347 81.3849 23.8147C81.8973 22.8948 82.1539 21.8234 82.1539 20.6005V12.7754C82.1539 12.5125 81.943 12.2992 81.6827 12.2992ZM100.154 12.2998H102.899C103.159 12.2998 103.37 12.5132 103.37 12.7761V26.2087C103.37 26.4716 103.159 26.6849 102.899 26.6849H100.154C99.8941 26.6849 99.6832 26.4716 99.6832 26.2087V12.7761C99.6832 12.5132 99.8941 12.2998 100.154 12.2998ZM162.534 12.2998H160.406H153.348H151.22C150.963 12.2998 150.754 12.5107 150.754 12.7707V14.826C150.754 15.086 150.963 15.2969 151.22 15.2969H153.348H154.744C154.758 15.2969 154.772 15.299 154.786 15.301C154.797 15.3019 154.807 15.3052 154.817 15.3077C154.918 15.3345 154.996 15.4137 155.023 15.5157C155.025 15.526 155.029 15.5363 155.029 15.547L155.03 15.5528C155.032 15.5649 155.034 15.5771 155.034 15.5899V26.2144C155.034 26.4745 155.242 26.6849 155.499 26.6849H158.255C158.512 26.6849 158.72 26.4745 158.72 26.2144V15.5899C158.72 15.5771 158.722 15.5648 158.724 15.5527L158.725 15.547C158.726 15.5363 158.729 15.526 158.731 15.5157C158.757 15.4137 158.836 15.3345 158.937 15.3077L158.952 15.3038C158.957 15.3025 158.962 15.3015 158.968 15.301C158.982 15.299 158.996 15.2969 159.01 15.2969H160.406H162.534C162.792 15.2969 163 15.086 163 14.826V12.7707C163 12.5107 162.792 12.2998 162.534 12.2998ZM138.027 12.2998H147.786C148.043 12.2998 148.25 12.5099 148.25 12.7686V14.8277C148.25 15.0869 148.043 15.2969 147.786 15.2969H141.453C141.339 15.2969 141.247 15.3902 141.247 15.5053V18.2846C141.247 18.4001 141.339 18.4934 141.453 18.4934H145.533C145.647 18.4934 145.739 18.5867 145.739 18.7022V21.2817C145.739 21.3968 145.647 21.4905 145.533 21.4905H141.453C141.339 21.4905 141.247 21.5838 141.247 21.6989V26.2144C141.247 26.4745 141.038 26.6849 140.782 26.6849H138.027C137.77 26.6849 137.562 26.4745 137.562 26.2144V12.7707C137.562 12.5107 137.77 12.2998 138.027 12.2998ZM93.465 22.4248C93.3826 23.1623 92.7208 23.6955 91.9868 23.6955L88.5622 23.6968C88.4455 23.6968 88.3504 23.6006 88.3504 23.4822L88.3509 21.0257C88.3509 20.9076 88.4455 20.8115 88.5626 20.8115L92.037 20.8107C92.2394 20.8107 92.4312 20.8548 92.6054 20.9316C93.1635 21.1701 93.5397 21.7582 93.465 22.4248ZM88.5667 15.2031L91.4581 15.2015C91.66 15.2015 91.8518 15.2452 92.026 15.3224C92.5368 15.5407 92.8954 16.0525 92.8954 16.6484C92.8954 17.4429 92.259 18.0867 91.474 18.0872C91.474 18.0872 89.2754 18.088 88.5769 18.0884C88.4598 18.0884 88.3664 17.9922 88.3664 17.8738V15.4062C88.3664 15.2939 88.4561 15.2031 88.5667 15.2031ZM94.7738 19.1152C94.7367 19.1004 94.7314 19.0508 94.7669 19.0314C95.161 18.816 96.6914 17.8593 96.6914 15.9914C96.6914 14.1449 95.0284 12.3092 93.2373 12.3092C92.4524 12.3092 90.6789 12.3075 88.891 12.3058H88.8895L88.8863 12.3058C87.4864 12.3044 86.0781 12.3031 85.129 12.3026C84.8715 12.3021 84.6659 12.513 84.6659 12.7735V26.211C84.6659 26.4743 84.8768 26.6877 85.1367 26.6877L92.0427 26.6869C92.4536 26.6869 93.2292 26.658 93.6437 26.5924C95.4327 26.3097 97.1744 24.7413 97.1744 22.847C97.1744 20.2197 95.2377 19.2981 94.7738 19.1152ZM123.855 19.4918C123.855 21.496 125.534 23.1204 127.606 23.1204C129.679 23.1204 131.358 21.496 131.358 19.4918C131.358 17.4881 129.679 15.8637 127.606 15.8637C125.534 15.8637 123.855 17.4881 123.855 19.4918ZM120.17 19.4918C120.17 15.5195 123.499 12.2995 127.606 12.2995C131.714 12.2995 135.043 15.5195 135.043 19.4918C135.043 23.4642 131.714 26.6842 127.606 26.6842C123.499 26.6842 120.17 23.4642 120.17 19.4918ZM117.69 13.9144C117.458 13.7967 117.032 13.5805 116.855 13.493C116.273 13.2041 115.622 12.9977 114.917 12.7889C113.963 12.5074 112.553 12.3048 111.691 12.3048C110.567 12.3048 109.438 12.4699 108.607 12.7972C107.777 13.1248 107.067 13.6738 106.59 14.3221C106.113 14.9709 105.875 15.7538 105.875 16.6713C105.875 17.5884 106.11 18.3205 106.532 18.902C107.019 19.5723 107.736 20.0036 108.107 20.1703C108.456 20.3275 109.589 20.7025 110.602 21.0376C111.362 21.2893 112.055 21.5184 112.295 21.6156C112.659 21.7625 112.914 22.1228 112.914 22.5426C112.914 23.0956 112.471 23.562 111.924 23.5438C111.256 23.5211 110.139 23.2603 109.582 23.044C108.744 22.7188 107.994 22.3148 107.363 21.789C107.242 21.6874 107.063 21.7217 106.993 21.8645L106.089 23.7163L105.924 24.0535C105.919 24.063 105.919 24.0737 105.916 24.0832L105.554 24.8492C105.511 24.9388 105.546 25.0449 105.633 25.0894L105.706 25.1264L105.71 25.1281C105.949 25.2494 106.309 25.4319 106.468 25.5108C107.05 25.7993 107.701 26.0061 108.406 26.2149C109.36 26.4964 110.77 26.6994 111.632 26.6994C112.756 26.6994 113.884 26.5339 114.715 26.2062C115.546 25.879 116.256 25.3305 116.733 24.6813C117.209 24.0329 117.448 23.25 117.448 22.3325C117.448 21.4154 117.229 20.6713 116.791 20.1014C116.618 19.8764 116.427 19.6808 116.227 19.5021L116.228 19.5017C115.921 19.2272 115.586 19.0002 115.216 18.8335C114.867 18.6763 113.734 18.3013 112.721 17.9663C111.96 17.7145 111.268 17.4854 111.027 17.3882C110.664 17.2413 110.409 16.881 110.409 16.4612C110.409 15.9086 110.852 15.4418 111.399 15.46C112.067 15.4827 113.184 15.7435 113.741 15.9598C114.579 16.285 115.329 16.689 115.959 17.2153C116.081 17.3164 116.26 17.2825 116.33 17.1393L117.234 15.2875L117.399 14.9499C117.401 14.9446 117.402 14.9391 117.404 14.9337C117.405 14.9292 117.406 14.9248 117.407 14.9206L117.77 14.1546C117.812 14.065 117.777 13.9585 117.69 13.9144Z" fill="#2F3E49"/>
<path fill-rule="evenodd" clip-rule="evenodd" d="M27.9799 8.94956C26.6456 6.74356 25.1109 4.56015 23.4477 2.60938C17.0695 10.206 12.0647 19.455 9 29.1516C12.5114 32.4012 16.2394 35.326 20.3115 37.8746C20.6344 38.077 21.1439 38.0284 21.4093 37.7537C23.868 35.2079 26.041 32.3842 27.8847 29.3361C28.1104 28.9626 27.9939 28.3349 27.6298 28.0951C23.87 25.6208 20.3959 22.7005 17.0795 19.6954C16.7379 19.3859 16.7409 19.0165 17.0795 18.6962C20.3384 15.6124 23.87 12.8163 27.6298 10.3421C27.9939 10.1027 28.2056 9.32305 27.9799 8.94956Z" fill="#00BEE0"/>
</svg>
