<svg width="108" height="38" viewBox="0 0 108 38" fill="none" xmlns="http://www.w3.org/2000/svg">
<g clip-path="url(#clip0)">
<path d="M48.2158 0.513291C48.2832 0.332172 48.3246 0.123133 48.486 0C48.8292 0.995799 49.2462 1.96511 49.6027 2.95661C50.3278 4.84369 51.0528 6.73149 51.7631 8.62429C52.3436 10.0332 52.8588 11.4692 53.4097 12.8903C55.4817 18.3231 57.555 23.7553 59.6081 29.1953C60.6974 32.0231 61.7439 34.8673 62.8381 37.6922C62.8486 37.7315 62.869 37.8096 62.8788 37.8482C60.4468 37.854 58.0148 37.8447 55.5828 37.8525C55.5056 37.854 55.4312 37.8418 55.3603 37.8167C54.4183 35.2939 53.4862 32.7654 52.5506 30.2398C52.5057 30.1188 52.4475 29.9563 52.2888 29.9907C49.7845 29.9849 47.2802 29.9899 44.7766 29.9892C44.5969 29.9892 44.4151 29.9778 44.2403 30.0207C43.3019 32.6122 42.4232 35.2302 41.5016 37.8289C41.4019 37.8482 41.2995 37.8518 41.1991 37.8532C38.8836 37.8425 36.5674 37.8568 34.2526 37.8468C34.2575 37.8046 34.2673 37.7194 34.2729 37.6764C35.3566 34.7771 36.4487 31.8792 37.5311 28.9784C38.5263 26.3654 39.4718 23.7331 40.5014 21.1344C41.0538 19.6031 41.6602 18.0919 42.2063 16.5585C42.4309 15.9729 42.6618 15.3901 42.8506 14.7917C44.6334 10.0296 46.4253 5.27179 48.2158 0.513291ZM48.3513 18.5694C47.9673 19.5444 47.6452 20.5467 47.2809 21.5303C46.7552 23 46.2288 24.469 45.7059 25.9402C45.6238 26.1943 45.4729 26.4341 45.4665 26.7083C46.5208 26.7591 47.5799 26.7133 48.6362 26.7291C49.5052 26.7126 50.3769 26.7613 51.2451 26.7069C51.2423 26.5086 51.1427 26.3318 51.0802 26.1492" fill="white"/>
<path d="M64.882 9.06252C65.6884 8.98807 66.4984 9.02028 67.307 9.00024C69.4119 9.00239 71.5176 8.99022 73.6225 9.0167C74.7336 9.10691 75.8503 9.06109 76.9613 9.14055C77.6787 9.26297 78.4051 9.35961 79.0972 9.59944C80.4841 10.0383 81.7777 10.8558 82.6768 12.0306C83.1147 12.6205 83.4755 13.2734 83.7184 13.9721C83.9275 14.5484 84.0209 15.1562 84.1177 15.7596C84.1458 16.1147 84.1191 16.4712 84.1269 16.827C84.1992 18.4893 83.6741 20.1724 82.6971 21.5032C82.064 22.4081 81.1881 23.1018 80.2504 23.6516C79.5092 24.0439 78.7399 24.399 77.9201 24.5758C77.9643 24.6846 78.0745 24.7347 78.1721 24.7856C79.2951 25.3117 80.1317 26.2925 80.8273 27.3069C81.5053 28.3206 82.1258 29.373 82.7666 30.4117C84.2813 32.8737 85.7686 35.3535 87.3036 37.8025C87.0811 37.8892 86.8382 37.8448 86.6073 37.8512C84.5017 37.8484 82.3967 37.8505 80.2911 37.8498C80.0426 37.8462 79.7934 37.8698 79.5471 37.8398C79.4081 37.7131 79.3316 37.5355 79.2361 37.3773C77.8176 34.9562 76.4019 32.5343 74.9841 30.1132C74.2802 28.8962 73.5179 27.6777 72.4426 26.7643C71.8587 26.3032 71.1673 25.9195 70.4212 25.8601C70.4142 29.1009 70.4205 32.3425 70.4184 35.5833C70.3945 36.3371 70.4654 37.0981 70.3854 37.8469C68.0081 37.8534 65.6302 37.8491 63.2536 37.8498C63.2389 32.3704 63.2515 26.8888 63.2473 21.4087C63.2515 17.3074 63.2396 13.2046 63.2529 9.10476C63.7926 9.03389 64.3394 9.1155 64.882 9.06252ZM70.4317 12.2826C70.3973 13.2233 70.4289 14.1668 70.4184 15.1089C70.4177 17.588 70.4191 20.0679 70.417 22.5477C70.7799 22.6121 71.1505 22.5663 71.5176 22.5806C71.9022 22.5964 72.2819 22.5183 72.656 22.4331C73.8597 22.1711 75.0101 21.5197 75.7653 20.5131C76.5135 19.5095 76.8771 18.2259 76.8308 16.9709C76.8448 16.0238 76.5844 15.0581 76.0587 14.272C75.4256 13.365 74.4458 12.7472 73.3944 12.4802C72.9627 12.3792 72.5297 12.2504 72.0826 12.2697C71.5323 12.2854 70.9806 12.2439 70.4317 12.2826Z" fill="white"/>
<path d="M0 9.11974C2.43202 9.1133 4.86545 9.12475 7.29817 9.11401C7.37959 9.12547 7.51084 9.09468 7.54102 9.2035C8.90408 13.1803 10.2622 17.1613 11.6274 21.1388C12.4184 23.4625 13.2256 25.7813 14.0011 28.1108C14.0285 28.1273 14.0819 28.1595 14.1085 28.1759C14.2784 27.8345 14.35 27.4515 14.496 27.0992C16.4949 21.3843 18.496 15.6708 20.4936 9.95518C20.596 9.67956 20.6627 9.3882 20.7975 9.12475C23.2653 9.11115 25.7352 9.11831 28.2037 9.12117C24.735 18.7141 21.2383 28.2998 17.7674 37.8927C17.7436 37.9972 17.6193 37.9829 17.5393 37.9936C15.4351 37.9915 13.3301 37.9936 11.2259 37.9922C10.8939 37.9736 10.5528 38.038 10.2271 37.9621C6.8981 28.6126 3.57539 19.2588 0.24987 9.90722C0.163539 9.64663 0.0280753 9.39751 0 9.11974Z" fill="white"/>
<path d="M84.5381 9.13193C86.3026 9.09829 88.0707 9.12835 89.8366 9.11833C95.8896 9.11761 101.943 9.11905 107.996 9.11761C108.001 10.1284 108.001 11.1407 107.996 12.1515C105.943 12.1537 103.891 12.1508 101.839 12.153C101.143 12.1709 100.444 12.1165 99.7514 12.1787C99.7619 20.0993 99.7528 28.0199 99.7563 35.9412C99.7338 36.5762 99.7998 37.2169 99.7247 37.8483C97.3952 37.8526 95.0642 37.8483 92.7347 37.8505C92.7305 30.1275 92.734 22.403 92.7333 14.6793C92.7199 13.8432 92.7578 13.0049 92.7178 12.1694C90.7533 12.1301 88.7845 12.1644 86.8185 12.1523C86.0584 12.1401 85.2961 12.1773 84.5374 12.1372C84.5177 11.1371 84.517 10.1327 84.5381 9.13193Z" fill="white"/>
<path d="M30.2091 18.8093C31.1966 18.6662 32.2354 18.7821 33.1275 19.2568C34.0786 19.7386 34.864 20.5582 35.3132 21.5404C36.1007 23.2464 35.8115 25.4134 34.565 26.8144C33.9452 27.551 33.091 28.0701 32.1687 28.3034C30.9292 28.6399 29.564 28.4108 28.4761 27.7257C27.405 27.047 26.6098 25.9231 26.3494 24.6617C25.9802 23.1218 26.461 21.4238 27.5188 20.274C28.2227 19.4966 29.1913 18.9919 30.2091 18.8093Z" fill="white"/>
</g>
<defs>
<clipPath id="clip0">
<rect width="108" height="38" fill="white"/>
</clipPath>
</defs>
</svg>
